<svg xmlns="http://www.w3.org/2000/svg" width="22" height="27" fill="none" viewBox="0 0 22 27">
  <path fill="#fff" fill-rule="evenodd" d="M2.077 26.229h18.19c.941 0 1.704-.76 1.704-1.698V10.86c0-.48-.204-.937-.56-1.259l-8.708-7.839a1.711 1.711 0 00-2.237-.044L.984 9.597c-.388.322-.613.8-.613 1.303V24.53c0 .938.764 1.698 1.706 1.698zm15.347-8.486c0 3.437-2.8 6.223-6.253 6.223-3.453 0-6.252-2.786-6.252-6.223s2.8-6.223 6.252-6.223c3.454 0 6.253 2.786 6.253 6.223zm-6.253-8.486c.942 0 1.706-.76 1.706-1.697s-.764-1.697-1.706-1.697c-.941 0-1.705.76-1.705 1.697s.764 1.697 1.705 1.697z" clip-rule="evenodd"/>
</svg>
