<svg width="129" height="112" viewBox="0 0 129 112" fill="none" xmlns="http://www.w3.org/2000/svg">
<g id="ISOTIPO">
<g id="Group 14">
<g id="Group 11">
<rect id="Rectangle 11" x="7.09042" y="47.485" width="7.09043" height="35.4521" fill="#1B262C"/>
<rect id="Rectangle 12" x="-4.57764e-05" y="54.5754" width="4.72695" height="21.2713" fill="#1B262C"/>
</g>
<g id="Group 12">
<rect id="Rectangle 11_2" x="120.537" y="82.9371" width="7.09043" height="35.4521" transform="rotate(-180 120.537 82.9371)" fill="#1B262C"/>
<rect id="Rectangle 12_2" x="127.628" y="75.8467" width="4.72695" height="21.2713" transform="rotate(-180 127.628 75.8467)" fill="#1B262C"/>
</g>
</g>
<path id="Ellipse 9" d="M94.4392 7.12276C94.4392 7.12276 94.4387 7.12359 94.4377 7.12527C94.4386 7.1236 94.4391 7.12276 94.4392 7.12276ZM93.1165 6.68484C93.6374 6.95854 93.9801 7.19797 94.1928 7.38215C93.9801 7.56634 93.6374 7.80576 93.1165 8.07946C91.752 8.79637 89.6222 9.51353 86.7916 10.1426C81.1687 11.3921 73.2863 12.1853 64.5001 12.1853C55.7139 12.1853 47.8315 11.3921 42.2086 10.1426C39.378 9.51353 37.2483 8.79637 35.8838 8.07946C35.3628 7.80576 35.0201 7.56634 34.8075 7.38215C35.0201 7.19796 35.3628 6.95854 35.8838 6.68484C37.2483 5.96793 39.378 5.25077 42.2086 4.62175C47.8315 3.37222 55.7139 2.57896 64.5001 2.57896C73.2863 2.57896 81.1687 3.37222 86.7916 4.62175C89.6222 5.25077 91.752 5.96793 93.1165 6.68484ZM34.5611 7.12276C34.5611 7.12276 34.5616 7.1236 34.5626 7.12528C34.5615 7.12359 34.5611 7.12276 34.5611 7.12276ZM34.5611 7.64154C34.5611 7.64154 34.5615 7.64071 34.5626 7.63903C34.5616 7.6407 34.5611 7.64154 34.5611 7.64154ZM94.4377 7.63902C94.4387 7.64071 94.4392 7.64155 94.4392 7.64154C94.4391 7.64154 94.4386 7.6407 94.4377 7.63902Z" stroke="#1B262C" stroke-width="4.72695"/>
<path id="Subtract" fill-rule="evenodd" clip-rule="evenodd" d="M111.083 26.2138H16.5444V108.935H111.083V26.2138ZM40.2414 80.9348C50.4751 80.9348 58.7711 72.6388 58.7711 62.4052C58.7711 52.1715 50.4751 43.8755 40.2414 43.8755C30.0078 43.8755 21.7118 52.1715 21.7118 62.4052C21.7118 72.6388 30.0078 80.9348 40.2414 80.9348ZM105.354 62.4052C105.354 72.6388 97.0581 80.9348 86.8245 80.9348C76.5908 80.9348 68.2948 72.6388 68.2948 62.4052C68.2948 52.1715 76.5908 43.8755 86.8245 43.8755C97.0581 43.8755 105.354 52.1715 105.354 62.4052ZM63.3562 93.3823H68.0832V96.9656H63.3562H62.0601H57.3332V93.3823H62.0601H63.3562Z" fill="#1B262C"/>
</g>
</svg>
