<svg width="196" height="59" viewBox="0 0 196 59" fill="none" xmlns="http://www.w3.org/2000/svg">
<g id="LOGO">
<path id="Robot" d="M10.4003 17.5264V21.6907H12.8403C13.4043 21.6907 13.7838 21.5498 13.979 21.2678C14.1742 20.9642 14.2718 20.5954 14.2718 20.1617V19.0555C14.2718 18.6217 14.1742 18.2639 13.979 17.9819C13.7838 17.6783 13.4043 17.5264 12.8403 17.5264H10.4003ZM9.22909 35.0946H4.2189C3.80681 35.0946 3.50316 35.0079 3.30796 34.8344C3.13445 34.6392 3.04769 34.3355 3.04769 33.9234V12.8416C3.04769 12.4295 3.13445 12.1367 3.30796 11.9632C3.50316 11.768 3.80681 11.6704 4.2189 11.6704H15.0526C17.4818 11.6704 19.1519 12.1801 20.0628 13.1995C20.9955 14.1972 21.4618 15.4985 21.4618 17.1035V18.6C21.4618 19.511 21.3208 20.2918 21.0388 20.9425C20.7786 21.5715 20.3122 22.0269 19.6399 22.3089C20.8111 22.439 21.7546 22.9162 22.4703 23.7404C23.2077 24.5646 23.5765 25.6599 23.5765 27.0263V33.9234C23.5765 34.3355 23.4789 34.6392 23.2837 34.8344C23.1101 35.0079 22.8173 35.0946 22.4052 35.0946H17.3625C16.9504 35.0946 16.6468 35.0079 16.4516 34.8344C16.2781 34.6392 16.1913 34.3355 16.1913 33.9234V28.9458C16.1913 28.4686 16.0937 28.1216 15.8985 27.9047C15.725 27.6661 15.4105 27.5468 14.955 27.5468H10.4003V33.9234C10.4003 34.3355 10.3027 34.6392 10.1075 34.8344C9.93399 35.0079 9.64119 35.0946 9.22909 35.0946ZM46.9123 28.9458C46.9123 29.9435 46.7604 30.8544 46.4568 31.6786C46.1748 32.4811 45.6543 33.1751 44.8952 33.7608C44.1578 34.3247 43.1275 34.7693 41.8045 35.0946C40.5031 35.42 38.8439 35.5826 36.8268 35.5826C34.8097 35.5826 33.1397 35.42 31.8166 35.0946C30.4936 34.7693 29.4525 34.3247 28.6934 33.7608C27.956 33.1751 27.4354 32.4811 27.1318 31.6786C26.8498 30.8544 26.7088 29.9435 26.7088 28.9458V17.8518C26.7088 16.8541 26.8498 15.954 27.1318 15.1515C27.4354 14.3273 27.956 13.6224 28.6934 13.0368C29.4525 12.4512 30.4936 11.9957 31.8166 11.6704C33.1397 11.345 34.8097 11.1824 36.8268 11.1824C38.8439 11.1824 40.5031 11.345 41.8045 11.6704C43.1275 11.9957 44.1578 12.4512 44.8952 13.0368C45.6543 13.6224 46.1748 14.3273 46.4568 15.1515C46.7604 15.954 46.9123 16.8541 46.9123 17.8518V28.9458ZM34.094 27.7746C34.094 28.2083 34.2567 28.577 34.582 28.8807C34.9073 29.1627 35.6556 29.3036 36.8268 29.3036C37.998 29.3036 38.7463 29.1627 39.0716 28.8807C39.397 28.577 39.5597 28.2083 39.5597 27.7746V19.023C39.5597 18.6109 39.397 18.2639 39.0716 17.9819C38.7463 17.6783 37.998 17.5264 36.8268 17.5264C35.6556 17.5264 34.9073 17.6783 34.582 17.9819C34.2567 18.2639 34.094 18.6109 34.094 19.023V27.7746ZM64.7181 35.0946H52.2252C51.8131 35.0946 51.5094 35.0079 51.3142 34.8344C51.1407 34.6392 51.054 34.3355 51.054 33.9234V12.8416C51.054 12.4295 51.1407 12.1367 51.3142 11.9632C51.5094 11.768 51.8131 11.6704 52.2252 11.6704H62.6034C64.729 11.6704 66.3014 12.0825 67.3208 12.9066C68.3402 13.7091 68.8499 14.9563 68.8499 16.648V18.2096C68.8499 19.1206 68.6872 19.8689 68.3619 20.4545C68.0582 21.0184 67.5811 21.4413 66.9304 21.7233C68.3185 21.8534 69.3487 22.3306 70.0211 23.1548C70.6935 23.979 71.0297 25.1827 71.0297 26.766V29.7591C71.0297 31.581 70.5091 32.9257 69.468 33.7933C68.4486 34.6609 66.8653 35.0946 64.7181 35.0946ZM58.374 17.2011V20.7147H61.1394C61.5515 20.7147 61.8552 20.6063 62.0504 20.3894C62.2672 20.1725 62.3757 19.8472 62.3757 19.4134V18.5024C62.3757 18.0687 62.2672 17.7433 62.0504 17.5264C61.8552 17.3095 61.5515 17.2011 61.1394 17.2011H58.374ZM58.374 25.7249V29.5639H62.6034C63.0155 29.5639 63.3192 29.4555 63.5144 29.2386C63.7313 29.0217 63.8397 28.6963 63.8397 28.2626V26.9937C63.8397 26.56 63.7313 26.2455 63.5144 26.0503C63.3192 25.8334 63.0155 25.7249 62.6034 25.7249H58.374ZM94.4737 28.9458C94.4737 29.9435 94.3219 30.8544 94.0183 31.6786C93.7363 32.4811 93.2158 33.1751 92.4567 33.7608C91.7192 34.3247 90.689 34.7693 89.366 35.0946C88.0646 35.42 86.4054 35.5826 84.3883 35.5826C82.3712 35.5826 80.7011 35.42 79.3781 35.0946C78.0551 34.7693 77.014 34.3247 76.2549 33.7608C75.5174 33.1751 74.9969 32.4811 74.6933 31.6786C74.4113 30.8544 74.2703 29.9435 74.2703 28.9458V17.8518C74.2703 16.8541 74.4113 15.954 74.6933 15.1515C74.9969 14.3273 75.5174 13.6224 76.2549 13.0368C77.014 12.4512 78.0551 11.9957 79.3781 11.6704C80.7011 11.345 82.3712 11.1824 84.3883 11.1824C86.4054 11.1824 88.0646 11.345 89.366 11.6704C90.689 11.9957 91.7192 12.4512 92.4567 13.0368C93.2158 13.6224 93.7363 14.3273 94.0183 15.1515C94.3219 15.954 94.4737 16.8541 94.4737 17.8518V28.9458ZM81.6555 27.7746C81.6555 28.2083 81.8181 28.577 82.1435 28.8807C82.4688 29.1627 83.2171 29.3036 84.3883 29.3036C85.5595 29.3036 86.3078 29.1627 86.6331 28.8807C86.9585 28.577 87.1211 28.2083 87.1211 27.7746V19.023C87.1211 18.6109 86.9585 18.2639 86.6331 17.9819C86.3078 17.6783 85.5595 17.5264 84.3883 17.5264C83.2171 17.5264 82.4688 17.6783 82.1435 17.9819C81.8181 18.2639 81.6555 18.6109 81.6555 19.023V27.7746ZM109.518 35.0946H104.248C103.835 35.0946 103.532 35.0079 103.337 34.8344C103.163 34.6392 103.076 34.3355 103.076 33.9234V17.9494H98.2939C97.8818 17.9494 97.5782 17.8626 97.383 17.6891C97.2095 17.4939 97.1227 17.1903 97.1227 16.7782V12.8416C97.1227 12.4295 97.2095 12.1367 97.383 11.9632C97.5782 11.768 97.8818 11.6704 98.2939 11.6704H115.472C115.884 11.6704 116.177 11.768 116.35 11.9632C116.545 12.1367 116.643 12.4295 116.643 12.8416V16.7782C116.643 17.1903 116.545 17.4939 116.35 17.6891C116.177 17.8626 115.884 17.9494 115.472 17.9494H110.689V33.9234C110.689 34.3355 110.592 34.6392 110.396 34.8344C110.223 35.0079 109.93 35.0946 109.518 35.0946Z" fill="white"/>
<path id="guardian" d="M12.244 54.6284H6.26597C4.68447 54.6284 3.50784 54.3121 2.73607 53.6795C1.97695 53.0469 1.59739 52.0727 1.59739 50.7569V44.8358C1.59739 43.52 1.97695 42.5458 2.73607 41.9132C3.50784 41.2806 4.68447 40.9643 6.26597 40.9643H11.0105C11.2509 40.9643 11.4217 41.0212 11.5229 41.1351C11.6367 41.2363 11.6937 41.4071 11.6937 41.6475V43.9438C11.6937 44.1842 11.6367 44.3613 11.5229 44.4752C11.4217 44.5764 11.2509 44.627 11.0105 44.627H7.06305C6.67084 44.627 6.37984 44.7093 6.19006 44.8737C6.00028 45.0256 5.90539 45.2596 5.90539 45.5759V50.1117C5.90539 50.428 5.97498 50.662 6.11415 50.8138C6.26597 50.9657 6.48738 51.0416 6.77838 51.0416H8.61924V48.081C8.61924 47.8406 8.66985 47.6698 8.77107 47.5686C8.88493 47.4547 9.06206 47.3978 9.30245 47.3978H12.244C12.4844 47.3978 12.6552 47.4547 12.7564 47.5686C12.8703 47.6698 12.9272 47.8406 12.9272 48.081V53.9452C12.9272 54.1856 12.8703 54.3627 12.7564 54.4766C12.6552 54.5778 12.4844 54.6284 12.244 54.6284ZM27.8251 51.0416C27.8251 51.6236 27.7366 52.155 27.5594 52.6357C27.395 53.1039 27.0913 53.5087 26.6485 53.8503C26.2183 54.1793 25.6237 54.4386 24.8646 54.6284C24.1054 54.8182 23.1376 54.9131 21.9609 54.9131C20.7843 54.9131 19.8164 54.8182 19.0573 54.6284C18.2982 54.4386 17.6972 54.1793 17.2544 53.8503C16.8242 53.5087 16.5206 53.1039 16.3434 52.6357C16.179 52.155 16.0967 51.6236 16.0967 51.0416V41.6475C16.0967 41.4071 16.1473 41.2363 16.2485 41.1351C16.3624 41.0212 16.5395 40.9643 16.7799 40.9643H19.7595C19.9999 40.9643 20.1707 41.0212 20.2719 41.1351C20.3857 41.2363 20.4427 41.4071 20.4427 41.6475V50.3014C20.4427 50.5545 20.5376 50.7696 20.7273 50.9467C20.9171 51.1112 21.341 51.1934 21.9989 51.1934C22.6694 51.1934 23.0996 51.1112 23.2894 50.9467C23.4792 50.7696 23.574 50.5545 23.574 50.3014V41.6475C23.574 41.4071 23.6247 41.2363 23.7259 41.1351C23.8397 41.0212 24.0169 40.9643 24.2573 40.9643H27.1419C27.3823 40.9643 27.5531 41.0212 27.6543 41.1351C27.7682 41.2363 27.8251 41.4071 27.8251 41.6475V51.0416ZM36.2531 44.9496L35.3612 47.8343H38.3407L37.4487 44.9496C37.3981 44.8358 37.3412 44.7535 37.2779 44.7029C37.2273 44.6523 37.1641 44.627 37.0882 44.627H36.6137C36.5378 44.627 36.4682 44.6523 36.405 44.7029C36.3543 44.7535 36.3037 44.8358 36.2531 44.9496ZM35.1714 53.9452C35.1714 54.1856 35.1144 54.3627 35.0006 54.4766C34.8994 54.5778 34.7286 54.6284 34.4882 54.6284H31.6984C31.458 54.6284 31.2809 54.5778 31.167 54.4766C31.0658 54.3627 31.0152 54.1856 31.0152 53.9452V48.935C31.0152 48.5555 31.0721 48.119 31.186 47.6255C31.3125 47.1321 31.5023 46.5564 31.7553 45.8985L33.4064 41.5905C33.4823 41.3755 33.5962 41.2173 33.748 41.1161C33.9125 41.0149 34.1213 40.9643 34.3743 40.9643H39.4794C39.7198 40.9643 39.9159 41.0149 40.0677 41.1161C40.2322 41.2173 40.3524 41.3755 40.4283 41.5905L42.0794 45.8985C42.3324 46.5564 42.5159 47.1321 42.6297 47.6255C42.7563 48.119 42.8195 48.5555 42.8195 48.935V53.9452C42.8195 54.1856 42.7626 54.3627 42.6487 54.4766C42.5475 54.5778 42.3767 54.6284 42.1363 54.6284H39.2706C39.0176 54.6284 38.8278 54.5778 38.7013 54.4766C38.5874 54.3627 38.5305 54.1856 38.5305 53.9452V51.2883H35.1714V53.9452ZM50.4006 44.3803V46.8095H51.824C52.1529 46.8095 52.3743 46.7272 52.4882 46.5628C52.6021 46.3856 52.659 46.1706 52.659 45.9175V45.2723C52.659 45.0192 52.6021 44.8105 52.4882 44.646C52.3743 44.4689 52.1529 44.3803 51.824 44.3803H50.4006ZM49.7174 54.6284H46.7948C46.5544 54.6284 46.3773 54.5778 46.2634 54.4766C46.1622 54.3627 46.1116 54.1856 46.1116 53.9452V41.6475C46.1116 41.4071 46.1622 41.2363 46.2634 41.1351C46.3773 41.0212 46.5544 40.9643 46.7948 40.9643H53.1145C54.5315 40.9643 55.5057 41.2616 56.0371 41.8562C56.5811 42.4382 56.8531 43.1973 56.8531 44.1336V45.0066C56.8531 45.538 56.7709 45.9934 56.6064 46.373C56.4546 46.7399 56.1826 47.0056 55.7904 47.1701C56.4736 47.246 57.0239 47.5243 57.4415 48.0051C57.8716 48.4859 58.0867 49.1248 58.0867 49.9219V53.9452C58.0867 54.1856 58.0298 54.3627 57.9159 54.4766C57.8147 54.5778 57.6439 54.6284 57.4035 54.6284H54.4619C54.2215 54.6284 54.0444 54.5778 53.9305 54.4766C53.8293 54.3627 53.7787 54.1856 53.7787 53.9452V51.0416C53.7787 50.7632 53.7218 50.5608 53.6079 50.4343C53.5067 50.2951 53.3232 50.2255 53.0575 50.2255H50.4006V53.9452C50.4006 54.1856 50.3437 54.3627 50.2298 54.4766C50.1286 54.5778 49.9578 54.6284 49.7174 54.6284ZM68.2431 54.6284H61.8475C61.6071 54.6284 61.43 54.5778 61.3161 54.4766C61.2149 54.3627 61.1643 54.1856 61.1643 53.9452V41.6475C61.1643 41.4071 61.2149 41.2363 61.3161 41.1351C61.43 41.0212 61.6071 40.9643 61.8475 40.9643H68.2431C69.8246 40.9643 70.9949 41.2806 71.754 41.9132C72.5258 42.5458 72.9116 43.52 72.9116 44.8358V50.7569C72.9116 52.0727 72.5258 53.0469 71.754 53.6795C70.9949 54.3121 69.8246 54.6284 68.2431 54.6284ZM65.4723 44.5891V51.0416H67.7306C68.0343 51.0416 68.2557 50.9657 68.3949 50.8138C68.5467 50.662 68.6226 50.428 68.6226 50.1117V45.5C68.6226 45.1837 68.5467 44.956 68.3949 44.8168C68.2557 44.665 68.0343 44.5891 67.7306 44.5891H65.4723ZM76.6521 54.6284C76.4117 54.6284 76.2346 54.5778 76.1207 54.4766C76.0195 54.3627 75.9689 54.1856 75.9689 53.9452V51.6868C75.9689 51.4464 76.0195 51.2756 76.1207 51.1744C76.2346 51.0606 76.4117 51.0036 76.6521 51.0036H78.5309V44.627H76.6521C76.4117 44.627 76.2346 44.5764 76.1207 44.4752C76.0195 44.3613 75.9689 44.1842 75.9689 43.9438V41.6475C75.9689 41.4071 76.0195 41.2363 76.1207 41.1351C76.2346 41.0212 76.4117 40.9643 76.6521 40.9643H84.7367C84.9771 40.9643 85.1479 41.0212 85.2491 41.1351C85.363 41.2363 85.4199 41.4071 85.4199 41.6475V43.9438C85.4199 44.1842 85.363 44.3613 85.2491 44.4752C85.1479 44.5764 84.9771 44.627 84.7367 44.627H82.8958V51.0036H84.7367C84.9771 51.0036 85.1479 51.0606 85.2491 51.1744C85.363 51.2756 85.4199 51.4464 85.4199 51.6868V53.9452C85.4199 54.1856 85.363 54.3627 85.2491 54.4766C85.1479 54.5778 84.9771 54.6284 84.7367 54.6284H76.6521ZM93.6652 44.9496L92.7733 47.8343H95.7528L94.8609 44.9496C94.8103 44.8358 94.7533 44.7535 94.6901 44.7029C94.6395 44.6523 94.5762 44.627 94.5003 44.627H94.0258C93.9499 44.627 93.8803 44.6523 93.8171 44.7029C93.7665 44.7535 93.7159 44.8358 93.6652 44.9496ZM92.5835 53.9452C92.5835 54.1856 92.5266 54.3627 92.4127 54.4766C92.3115 54.5778 92.1407 54.6284 91.9003 54.6284H89.1105C88.8701 54.6284 88.693 54.5778 88.5791 54.4766C88.4779 54.3627 88.4273 54.1856 88.4273 53.9452V48.935C88.4273 48.5555 88.4843 48.119 88.5981 47.6255C88.7246 47.1321 88.9144 46.5564 89.1675 45.8985L90.8186 41.5905C90.8945 41.3755 91.0083 41.2173 91.1602 41.1161C91.3246 41.0149 91.5334 40.9643 91.7864 40.9643H96.8915C97.1319 40.9643 97.328 41.0149 97.4798 41.1161C97.6443 41.2173 97.7645 41.3755 97.8404 41.5905L99.4915 45.8985C99.7445 46.5564 99.928 47.1321 100.042 47.6255C100.168 48.119 100.232 48.5555 100.232 48.935V53.9452C100.232 54.1856 100.175 54.3627 100.061 54.4766C99.9596 54.5778 99.7888 54.6284 99.5484 54.6284H96.6827C96.4297 54.6284 96.2399 54.5778 96.1134 54.4766C95.9995 54.3627 95.9426 54.1856 95.9426 53.9452V51.2883H92.5835V53.9452ZM107.054 54.6284H104.207C103.967 54.6284 103.789 54.5778 103.676 54.4766C103.574 54.3627 103.524 54.1856 103.524 53.9452V41.6475C103.524 41.4071 103.574 41.2363 103.676 41.1351C103.789 41.0212 103.967 40.9643 104.207 40.9643H106.181C106.421 40.9643 106.623 41.0022 106.788 41.0781C106.965 41.154 107.136 41.2869 107.3 41.4767L110.982 45.6898V41.6475C110.982 41.4071 111.033 41.2363 111.134 41.1351C111.248 41.0212 111.425 40.9643 111.665 40.9643H114.512C114.752 40.9643 114.923 41.0212 115.024 41.1351C115.138 41.2363 115.195 41.4071 115.195 41.6475V53.9452C115.195 54.1856 115.138 54.3627 115.024 54.4766C114.923 54.5778 114.752 54.6284 114.512 54.6284H111.665C111.425 54.6284 111.248 54.5778 111.134 54.4766C111.033 54.3627 110.982 54.1856 110.982 53.9452V51.6109L107.737 47.6825V53.9452C107.737 54.1856 107.68 54.3627 107.566 54.4766C107.465 54.5778 107.294 54.6284 107.054 54.6284Z" fill="white"/>
<g id="ISOTIPO">
<g id="Group 14">
<g id="Group 11">
<rect id="Rectangle 11" x="134.828" y="24.7959" width="1.79247" height="16.1323" fill="white" stroke="white" stroke-width="1.79247"/>
<rect id="Rectangle 12" x="130.944" y="28.082" width="1.19498" height="9.55985" fill="white" stroke="white" stroke-width="1.19498"/>
</g>
<g id="Group 12">
<rect id="Rectangle 11_2" x="191.29" y="41.8244" width="3.58495" height="17.9247" transform="rotate(-180 191.29 41.8244)" fill="white"/>
<rect id="Rectangle 12_2" x="194.875" y="38.2394" width="2.38996" height="10.7548" transform="rotate(-180 194.875 38.2394)" fill="white"/>
</g>
</g>
<path id="Ellipse 9" d="M178.095 3.49231C178.095 3.49231 178.095 3.49277 178.094 3.49368L178.095 3.49231ZM177.426 3.2709C177.69 3.40928 177.863 3.53034 177.971 3.62347C177.863 3.71659 177.69 3.83764 177.426 3.97603C176.736 4.3385 175.66 4.7011 174.228 5.01913C171.386 5.6509 167.4 6.05197 162.958 6.05197C158.516 6.05197 154.53 5.6509 151.687 5.01913C150.256 4.7011 149.179 4.3385 148.489 3.97603C148.226 3.83764 148.053 3.71659 147.945 3.62346C148.053 3.53034 148.226 3.40928 148.489 3.2709C149.179 2.90843 150.256 2.54583 151.687 2.22779C154.53 1.59603 158.516 1.19495 162.958 1.19495C167.4 1.19495 171.386 1.59603 174.228 2.22779C175.66 2.54583 176.736 2.90843 177.426 3.2709ZM147.821 3.75461C147.821 3.75461 147.821 3.75419 147.821 3.75333L147.821 3.75461Z" stroke="white" stroke-width="2.38996"/>
<path id="Subtract" fill-rule="evenodd" clip-rule="evenodd" d="M186.51 13.1448H138.711V54.9692H186.51V13.1448ZM150.586 40.4783C155.76 40.4783 159.954 36.2838 159.954 31.1096C159.954 25.9354 155.76 21.741 150.586 21.741C145.411 21.741 141.217 25.9354 141.217 31.1096C141.217 36.2838 145.411 40.4783 150.586 40.4783ZM183.507 31.1096C183.507 36.2838 179.312 40.4783 174.138 40.4783C168.964 40.4783 164.769 36.2838 164.769 31.1096C164.769 25.9354 168.964 21.741 174.138 21.741C179.312 21.741 183.507 25.9354 183.507 31.1096ZM162.379 47.1054H164.769V48.9172H162.379H161.724H159.334V47.1054H161.724H162.379Z" fill="white"/>
</g>
</g>
</svg>
