<svg width="23" height="27" viewBox="0 0 23 27" fill="none" xmlns="http://www.w3.org/2000/svg">
<path d="M17.595 6.859C17.595 10.2211 14.8406 12.9466 11.4429 12.9466C8.04512 12.9466 5.29071 10.2211 5.29071 6.859C5.29071 3.49692 8.04512 0.771423 11.4429 0.771423C14.8406 0.771423 17.595 3.49692 17.595 6.859Z" fill="white"/>
<path fill-rule="evenodd" clip-rule="evenodd" d="M5.85 14.0534C2.76115 14.0534 0.257141 16.5311 0.257141 19.5876V26.2286H22.6286V19.5876C22.6286 16.5311 20.1246 14.0534 17.0357 14.0534H5.85ZM11.4429 19.5876C12.3695 19.5876 13.1207 18.8443 13.1207 17.9273C13.1207 17.0104 12.3695 16.2671 11.4429 16.2671C10.5162 16.2671 9.765 17.0104 9.765 17.9273C9.765 18.8443 10.5162 19.5876 11.4429 19.5876Z" fill="white"/>
</svg>
