<svg width="26" height="27" viewBox="0 0 26 27" fill="none" xmlns="http://www.w3.org/2000/svg">
<path fill-rule="evenodd" clip-rule="evenodd" d="M12.9143 25.4982C19.7311 25.4982 25.2572 20.1264 25.2572 13.5C25.2572 6.8736 19.7311 1.50183 12.9143 1.50183C6.09753 1.50183 0.571442 6.8736 0.571442 13.5C0.571442 20.1264 6.09753 25.4982 12.9143 25.4982ZM5.16413 15.4532C6.11531 15.4532 6.88639 14.7036 6.88639 13.779C6.88639 12.8544 6.11531 12.1049 5.16413 12.1049C4.21296 12.1049 3.44187 12.8544 3.44187 13.779C3.44187 14.7036 4.21296 15.4532 5.16413 15.4532ZM22.3867 13.779C22.3867 14.7036 21.6156 15.4532 20.6645 15.4532C19.7133 15.4532 18.9422 14.7036 18.9422 13.779C18.9422 12.8544 19.7133 12.1049 20.6645 12.1049C21.6156 12.1049 22.3867 12.8544 22.3867 13.779ZM18.7927 20.2457C19.0927 19.5657 19.2427 18.6357 19.2427 17.4557C19.2427 16.2957 19.1327 15.4057 18.9127 14.7857C18.6927 14.1457 18.3527 13.6857 17.8927 13.4057C17.4527 13.1257 16.8427 12.9357 16.0627 12.8357L14.3527 12.6257V8.75572C16.0327 8.83572 17.3827 8.93572 18.4027 9.05572V6.32572C17.1827 6.04572 15.8327 5.89572 14.3527 5.87572V3.50572H11.9827V5.90572C10.2627 6.02572 8.98271 6.43572 8.14271 7.13572C7.32271 7.83572 6.91271 8.98572 6.91271 10.5857C6.91271 12.0057 7.15271 13.0957 7.63271 13.8557C8.11271 14.5957 9.03271 15.0557 10.3927 15.2357L11.9827 15.4457V19.4357C11.3227 19.4157 10.1027 19.3457 8.32271 19.2257L7.42271 19.1657V21.8957C8.62271 22.1157 10.1427 22.2657 11.9827 22.3457V24.6257H14.3527V22.3157C15.6127 22.2157 16.5927 22.0157 17.2927 21.7157C17.9927 21.3957 18.4927 20.9057 18.7927 20.2457ZM11.9827 8.78572V12.3557L11.7427 12.3257C11.2027 12.2657 10.8327 12.1957 10.6327 12.1157C10.4327 12.0357 10.2927 11.8857 10.2127 11.6657C10.1327 11.4457 10.0927 11.0757 10.0927 10.5557C10.0927 9.93572 10.2327 9.50572 10.5127 9.26572C10.8127 9.00572 11.3027 8.84572 11.9827 8.78572ZM15.7627 18.8657C15.5627 19.1257 15.0927 19.2957 14.3527 19.3757V15.7457C14.9127 15.8057 15.2927 15.8757 15.4927 15.9557C15.7127 16.0357 15.8627 16.1857 15.9427 16.4057C16.0427 16.6257 16.0927 17.0057 16.0927 17.5457C16.0927 18.1657 15.9827 18.6057 15.7627 18.8657Z" fill="white"/>
</svg>
