<svg width="23" height="27" viewBox="0 0 23 27" fill="none" xmlns="http://www.w3.org/2000/svg">
<path fill-rule="evenodd" clip-rule="evenodd" d="M11.4727 1.50359C11.4152 1.56361 11.3914 1.6341 11.3914 1.69121C11.3914 1.74831 11.4152 1.81881 11.4727 1.87882C11.5316 1.94035 11.6381 2 11.7714 2C11.9048 2 12.0113 1.94035 12.0702 1.87882C12.1277 1.81881 12.1514 1.74831 12.1514 1.69121C12.1514 1.6341 12.1277 1.56361 12.0702 1.50359C12.0113 1.44207 11.9048 1.38242 11.7714 1.38242C11.6381 1.38242 11.5316 1.44207 11.4727 1.50359ZM13.3914 1.69121C13.3914 2.42757 12.9406 3.05402 12.3114 3.28619V5.63736H19.5714C21.2283 5.63736 22.5714 6.98051 22.5714 8.63736V24C22.5714 25.6568 21.2283 27 19.5714 27H3.97144C2.31459 27 0.971436 25.6569 0.971436 24V8.63737C0.971436 6.98051 2.31458 5.63736 3.97144 5.63736H11.2314V3.28618C10.6022 3.05402 10.1514 2.42757 10.1514 1.69121C10.1514 0.75718 10.8767 0 11.7714 0C12.6661 0 13.3914 0.75718 13.3914 1.69121ZM11.1415 15.4558C11.1415 17.4536 9.59012 19.0731 7.67645 19.0731C5.76277 19.0731 4.21144 17.4536 4.21144 15.4558C4.21144 13.458 5.76277 11.8385 7.67645 11.8385C9.59012 11.8385 11.1415 13.458 11.1415 15.4558ZM15.8664 19.0731C17.7801 19.0731 19.3315 17.4536 19.3315 15.4558C19.3315 13.458 17.7801 11.8385 15.8664 11.8385C13.9528 11.8385 12.4014 13.458 12.4014 15.4558C12.4014 17.4536 13.9528 19.0731 15.8664 19.0731ZM9.15143 20.422H10.1514H12.8514H13.8514V21.422V21.9857V22.9857H12.8514H10.1514H9.15143V21.9857V21.422V20.422Z" fill="white"/>
</svg>
